# xmcd
#
# Track frame offsets: 
#        150
#        15375
#        36675
#        53325
#        65775
#        77925
#        89100
#        101550
#        119025
#        130425
#        141975
#        156000
#
# Disc length: 2325 seconds
#
# Revision: 3
# Processed by: cddbd v1.5.2PL0 Copyright (c) Steve Scherf et al.
# Submitted via: ExactAudioCopy v1.0b3
#
DISCID=b109130c
DTITLE=John Hammond - Country Blues
DYEAR=1964
DGENRE=Blues
TTITLE0=Traveling Riverside Blues
TTITLE1=Hitchhiking Woman
TTITLE2=Statesborough Blues
TTITLE3=Milk Cow's Calf Blues
TTITLE4=Crawling Kingsnake
TTITLE5=Bull Frog Blues
TTITLE6=Drop Down Mama
TTITLE7=Little Rain Falling
TTITLE8=Seventh Son
TTITLE9=Who Do You Love
TTITLE10=32-20 Blues
TTITLE11=Goin' Down Slow
EXTD=
EXTT0=
EXTT1=
EXTT2=
EXTT3=
EXTT4=
EXTT5=
EXTT6=
EXTT7=
EXTT8=
EXTT9=
EXTT10=
EXTT11=
PLAYORDER=
